PathFileType	4	(X/Y/Z)	Patient4_TMGait_0pt7_02_right_06.trc.trc
DataRate	CameraRate	NumFrames	NumMarkers	Units	OrigDataRate	OrigDataStartFrame	OrigNumFrames
88.607594936709	88.607594936709	4	33	mm	88.607594936709	124	       141
Frame#	Time	Sacral			L.Shoulder			Chest			R.Shoulder			Neck			R.ASIS			L.ASIS			R.Thigh.Superior			R.Thigh.Lateral			R.Thigh.Inferior			R.Patella			L.Thigh.Superior			L.Thigh.Lateral			L.Thigh.Inferior			L.Patella			L.Shank.Superior			L.Shank.Lateral			L.Shank.Inferior			R.Shank.Superior			R.Shank.Lateral			R.Shank.Inferior			R.Heel			R.Midfoot.Superior			R.Midfoot.Lateral			R.Toe			L.Heel			L.Midfoot.Lateral			L.Midfoot.Superior			L.Toe			L.Elbow			L.Wrist			R.Elbow			R.Wrist			
		X1	Y1	Z1	X2	Y2	Z2	X3	Y3	Z3	X4	Y4	Z4	X5	Y5	Z5	X6	Y6	Z6	X7	Y7	Z7	X8	Y8	Z8	X9	Y9	Z9	X10	Y10	Z10	X11	Y11	Z11	X12	Y12	Z12	X13	Y13	Z13	X14	Y14	Z14	X15	Y15	Z15	X16	Y16	Z16	X17	Y17	Z17	X18	Y18	Z18	X19	Y19	Z19	X20	Y20	Z20	X21	Y21	Z21	X22	Y22	Z22	X23	Y23	Z23	X24	Y24	Z24	X25	Y25	Z25	X26	Y26	Z26	X27	Y27	Z27	X28	Y28	Z28	X29	Y29	Z29	X30	Y30	Z30	X31	Y31	Z31	X32	Y32	Z32	X33	Y33	Z33	

124	7.308142857143	786.260662336366	997.295285646663	453.278502834478	986.086817232644	1426.820978712286	286.886293404612	1072.410216936152	1351.597399991876	456.218778913216	974.000005637578	1427.853164261559	621.875562983096	972.170286298010	1484.571974647291	441.121595629559	1002.994000548799	932.370014625689	590.095405909713	1011.473084476431	952.143586928937	313.755741203692	1072.780883308200	754.863355808163	572.090313659002	1014.072891571811	633.116593089038	637.700026588241	1111.311891041306	596.163332443418	568.685161342383	1138.068120746023	512.037967344936	584.587038606810	1008.013566658895	724.697308560379	340.491170520440	890.685172981610	633.244833286192	273.570653859703	945.760074724877	538.250544467650	339.401512371506	929.510680458190	471.227137114249	348.076333372989	895.020855866093	406.144481828043	339.170729560257	791.845283962480	303.793070588195	286.366497192251	826.852625500663	187.638430961605	359.496243203377	1119.952481962329	421.806391877709	593.172034181573	1056.560380353561	308.826327650658	647.194122711919	1129.298127573572	221.915709357415	602.549380646028	1034.166216139342	41.347359093351	566.855599044708	1195.976549172980	110.815953832223	614.467864265619	1113.655525715283	38.225365935371	644.808625339315	1317.619687069145	69.930793377193	648.545052477917	686.321611449221	38.246286162874	402.467828501019	759.551250216059	34.762291204424	321.214945448400	843.258614066584	95.070518930683	348.200519899063	971.775584676411	41.552687383333	318.346983612596	1052.793825509405	1107.840448080237	129.175066096012	1296.004636860297	1119.722319684883	197.504905457913	817.092260043876	1120.822098602261	731.456047899734	769.180436342024	864.242614377884	742.018368328738	
125	7.319428571429	787.189743205760	995.588102481501	455.969610073520	985.196581437735	1425.374193539860	289.230949562539	1072.248088575443	1350.862040658380	458.592201331214	973.932997041689	1426.967589275484	624.595582769235	971.529526692288	1483.324384158094	443.602783991690	1004.517309072779	930.660582842328	592.218496584564	1012.320635466695	950.938698780117	316.135828760191	1074.155110770609	752.386685805751	574.020247921952	1013.109600422047	630.702453065840	637.524634840561	1110.664524040919	593.866846665656	569.051484092400	1135.848075808642	509.266256413468	583.396705389566	1008.816792440508	723.243540157869	341.962574655481	891.009254865779	631.954334083692	275.490216246170	946.043426133879	536.607842430911	341.048545650670	929.638989125368	468.799127087695	349.534978694623	893.456258044033	404.127585267539	340.589713139294	788.188167852050	303.936035635038	287.565248557370	820.824980281073	186.826714413130	360.038617191669	1117.794918998187	418.780906946055	591.938495720459	1054.027096341357	306.086887431152	645.949477320472	1125.523257238660	218.889202701105	600.486916032388	1027.749949219550	40.815151015179	564.917227213169	1191.067942669210	107.684944971841	611.607602979588	1107.203436298262	37.081135653645	642.993318054931	1311.926131924506	64.350851441924	645.864670223186	678.321967797534	38.739938316825	402.325807193393	751.646696294576	34.881429508967	321.222179990106	835.591521860732	95.059066405971	348.222014879089	963.944237743846	41.170084123060	318.281870289877	1050.098232952295	1105.722890492896	131.590426124009	1292.765211116144	1122.928284913460	199.977526283926	812.789475809912	1122.531142657176	733.248867065814	761.510275266393	866.443664644266	742.512129483098	
126	7.330714285714	787.980358811506	994.222248429495	458.665512128872	984.587874306574	1424.155425289499	291.615629408745	1072.224328623869	1350.275394281857	461.034408879610	974.038595282628	1426.307395396721	627.357123830790	971.135033449537	1482.346706368685	446.171270121317	1005.869890992550	929.392231237452	594.436320576307	1012.948681893594	949.900672793624	318.608912557322	1075.763335275976	750.740285999404	575.765276289725	1013.009406886161	629.193637602323	637.616830333620	1110.571988088639	592.374315520364	569.366186661476	1134.306789905181	507.128151118181	582.410583889470	1009.934262473997	722.048204792472	343.652014883437	891.979073582148	630.586578684104	277.638289220180	947.334422073829	534.981855511419	342.862736182028	930.875470253388	466.223859801736	351.039436925448	892.715568879423	402.036593879060	342.086450548559	785.121318078417	304.339669988125	288.916493072747	815.174241804868	186.182237667151	360.574302277579	1116.033712632833	416.365802439851	590.941569561805	1051.851200357801	304.231333194313	645.520313206382	1121.397797042551	216.432392835049	598.855307073508	1020.279748315146	40.801592620358	563.719121923892	1185.218783307878	105.154373112584	609.463178415306	1099.778748965795	36.437499287318	641.855952584251	1305.283184052329	59.376135259144	643.723475655557	670.363220088120	39.744447667204	402.141141508433	743.785779837865	35.220838140184	321.229241362290	828.124636949753	95.125285558353	348.160902758351	956.145912452214	40.741696211498	318.198396402621	1046.770119644709	1103.456223279649	134.322109743803	1289.080251475461	1124.897380867085	202.352152213691	809.399285840697	1123.930701393495	734.935285093685	755.107695047534	868.267420343326	743.205475234581	
127	7.342000000000	788.622914076519	993.251169611723	461.343925689099	984.290696562558	1423.238463925109	294.024227464440	1072.338568414042	1349.867059960546	463.519835071810	974.307514259399	1425.910483493448	630.106647290270	971.007901395217	1481.691935539211	448.794338504435	1007.013931940949	928.625842893585	596.756625698562	1013.328882156498	949.096065365722	321.145360780013	1077.452853846342	749.913634881465	577.302431999371	1013.681047748022	628.573408043753	638.087523214373	1110.863350914878	591.602280959845	569.682493503686	1133.276640916425	505.601749936096	581.768969081655	1011.318484737425	721.178610678882	345.550003750543	893.579466196959	629.200534103434	279.965826042658	949.664015737709	533.439838790440	344.766567184681	933.250178364372	463.576721449761	352.464080006840	892.826479762558	399.962534861880	343.557251023367	782.672821888640	305.115631278534	290.367937577658	809.967966287397	185.820135856431	361.035113287088	1114.548486398602	414.555912335302	590.279741799829	1049.957779659818	303.175616654794	645.900657141666	1117.013216240232	214.552923119268	597.698672897170	1012.175062194844	41.112811888617	563.174368964781	1178.652619682208	103.260961815277	608.076368869743	1091.769147673859	36.172484686143	641.327587803767	1297.993853980744	55.299745748683	642.199414968198	662.501617679979	41.453131683888	401.906845030644	735.998324527490	35.883411322930	321.226176658835	820.932106102531	95.299894352990	347.976250471222	948.379929786597	40.282739286269	318.100231148047	1042.787651534265	1101.129047968515	137.388973159504	1284.990955640782	1125.610421312226	204.630841970675	806.989094465544	1124.992693353331	736.529845767183	750.117243241864	869.676278350537	744.057644991506	
